<svg xmlns="http://www.w3.org/2000/svg" viewBox="0 0 24 24" width="24" height="24">
  <defs>
    <linearGradient id="autoClickerGradient" x1="0%" y1="0%" x2="100%" y2="100%">
      <stop offset="0%" stop-color="#00c6ff" />
      <stop offset="100%" stop-color="#0072ff" />
    </linearGradient>
  </defs>
  <path fill="url(#autoClickerGradient)" d="M10,2H14V4H10V2M11,16H13V14H11V16M11,10H13V8H11V10M11,6H13V4H11V6M7,22H9V20H7V22M7,18H9V16H7V18M7,14H9V12H7V14M7,10H9V8H7V10M7,6H9V4H7V6M15,22H17V20H15V22M15,18H17V16H15V18M15,14H17V12H15V14M15,10H17V8H15V10M15,6H17V4H15V6M3,22H5V20H3V22M3,18H5V16H3V18M3,14H5V12H3V14M3,10H5V8H3V10M3,6H5V4H3V6M19,22H21V20H19V22M19,18H21V16H19V18M19,14H21V12H19V14M19,10H21V8H19V10M19,6H21V4H19V6" />
</svg> 