<svg xmlns="http://www.w3.org/2000/svg" viewBox="0 0 24 24" width="24" height="24">
  <defs>
    <linearGradient id="killAuraGradient" x1="0%" y1="0%" x2="100%" y2="100%">
      <stop offset="0%" stop-color="#00c6ff" />
      <stop offset="100%" stop-color="#0072ff" />
    </linearGradient>
  </defs>
  <path fill="url(#killAuraGradient)" d="M12,2A10,10 0 0,0 2,12A10,10 0 0,0 12,22A10,10 0 0,0 22,12A10,10 0 0,0 12,2M12,20A8,8 0 0,1 4,12A8,8 0 0,1 12,4A8,8 0 0,1 20,12A8,8 0 0,1 12,20M16.5,11A1.5,1.5 0 0,0 18,9.5A1.5,1.5 0 0,0 16.5,8A1.5,1.5 0 0,0 15,9.5A1.5,1.5 0 0,0 16.5,11M7.5,11A1.5,1.5 0 0,0 9,9.5A1.5,1.5 0 0,0 7.5,8A1.5,1.5 0 0,0 6,9.5A1.5,1.5 0 0,0 7.5,11M12,17.5C14.33,17.5 16.31,16.04 17.11,14H6.89C7.69,16.04 9.67,17.5 12,17.5Z" />
</svg> 