<svg xmlns="http://www.w3.org/2000/svg" viewBox="0 0 24 24" width="24" height="24">
  <defs>
    <linearGradient id="movementGradient" x1="0%" y1="0%" x2="100%" y2="100%">
      <stop offset="0%" stop-color="#00c6ff" />
      <stop offset="100%" stop-color="#0072ff" />
    </linearGradient>
  </defs>
  <path fill="url(#movementGradient)" d="M13,5.5L13,2.27C13,1.82 13.27,1.41 13.7,1.24C14.13,1.06 14.63,1.18 14.94,1.5L20.58,7.47C20.85,7.74 21,8.11 21,8.5C21,8.89 20.85,9.26 20.58,9.53L14.94,15.5C14.63,15.82 14.13,15.94 13.7,15.76C13.27,15.58 13,15.18 13,14.73L13,11.5L9,11.5C8.45,11.5 8,11.05 8,10.5L8,6.5C8,5.95 8.45,5.5 9,5.5L13,5.5M3,18.5L9,18.5C9.55,18.5 10,18.95 10,19.5L10,20.5C10,21.05 9.55,21.5 9,21.5L3,21.5C2.45,21.5 2,21.05 2,20.5L2,19.5C2,18.95 2.45,18.5 3,18.5M3,13.5L9,13.5C9.55,13.5 10,13.95 10,14.5L10,15.5C10,16.05 9.55,16.5 9,16.5L3,16.5C2.45,16.5 2,16.05 2,15.5L2,14.5C2,13.95 2.45,13.5 3,13.5M3,8.5L6,8.5C6.55,8.5 7,8.95 7,9.5L7,10.5C7,11.05 6.55,11.5 6,11.5L3,11.5C2.45,11.5 2,11.05 2,10.5L2,9.5C2,8.95 2.45,8.5 3,8.5M3,3.5L9,3.5C9.55,3.5 10,3.95 10,4.5L10,5.5C10,6.05 9.55,6.5 9,6.5L3,6.5C2.45,6.5 2,6.05 2,5.5L2,4.5C2,3.95 2.45,3.5 3,3.5Z" />
</svg> 