<svg xmlns="http://www.w3.org/2000/svg" viewBox="0 0 24 24" width="24" height="24">
  <defs>
    <linearGradient id="reachGradient" x1="0%" y1="0%" x2="100%" y2="100%">
      <stop offset="0%" stop-color="#00c6ff" />
      <stop offset="100%" stop-color="#0072ff" />
    </linearGradient>
  </defs>
  <path fill="url(#reachGradient)" d="M19,3H14V5H19V18L14,18V20H19A2,2 0 0,0 21,18V5C21,3.89 20.1,3 19,3M10,18H5L5,5H10V3H5C3.89,3 3,3.89 3,5V18A2,2 0 0,0 5,20H10V18M11,13H13V16H16V13H18L14,9L10,13H12V16H15V13Z" />
</svg> 